<svg width="80" height="80" viewBox="0 0 80 80" fill="none" xmlns="http://www.w3.org/2000/svg">
  <rect width="80" height="80" rx="12" fill="#3CB371"/>
  <path d="M24 48H28V56H24V48ZM36 40H40V56H36V40ZM48 32H52V56H48V32ZM24 28C24 27.4696 24.2107 26.9609 24.5858 26.5858C24.9609 26.2107 25.4696 26 26 26H54C54.5304 26 55.0391 26.2107 55.4142 26.5858C55.7893 26.9609 56 27.4696 56 28V28C56 28.5304 55.7893 29.0391 55.4142 29.4142C55.0391 29.7893 54.5304 30 54 30H26C25.4696 30 24.9609 29.7893 24.5858 29.4142C24.2107 29.0391 24 28.5304 24 28V28Z" fill="white"/>
  <path d="M40 20L47 27H33L40 20Z" fill="white"/>
</svg> 